<svg width="269" height="273" fill="none" xmlns="http://www.w3.org/2000/svg"><path d="m61.616 158.679 28.962 66.629-76.41-11.611 47.448-55.018Z" fill="#FFC0C0"/><path d="m33.186 209.076 45.54-57.209 26.49 68.155-72.03-10.946Z" stroke="#FFA4A4" stroke-width="3"/><rect x="152.4" y="176.042" width="79.155" height="76.323" rx="3" transform="rotate(-31.151 152.4 176.042)" fill="#FFC0C0"/><rect x="149.023" y="194.667" width="81.297" height="79.736" rx="1.5" transform="rotate(-31.151 149.023 194.667)" stroke="#FFA4A4" stroke-width="3"/><ellipse cx="83.661" cy="61.127" rx="39" ry="42.5" transform="rotate(-91.176 83.661 61.127)" fill="#FFC0C0"/><path d="M95.53 5.872c22.528-.463 40.834 15.889 41.25 36.16.417 20.273-17.204 37.362-39.732 37.824-22.528.463-40.834-15.889-41.25-36.16C55.38 23.422 73 6.333 95.529 5.871Z" stroke="#FFA4A4" stroke-width="4"/></svg>