<svg width="263" height="270" viewBox="0 0 263 270" fill="none" xmlns="http://www.w3.org/2000/svg">
<path d="M88.0298 33.2249L90.1781 105.845L23.5438 66.6889L88.0298 33.2249Z" fill="#FFC0C0"/>
<path d="M42.9179 69.4612L106.446 33.2544L105.732 106.373L42.9179 69.4612Z" stroke="#FFA4A4" stroke-width="3"/>
<rect x="93.9243" y="155.721" width="79.1554" height="76.3235" rx="3" transform="rotate(60.0245 93.9243 155.721)" fill="#FFC0C0"/>
<rect x="75.3728" y="151.962" width="81.2969" height="79.736" rx="1.5" transform="rotate(60.0245 75.3728 151.962)" stroke="#FFA4A4" stroke-width="3"/>
<ellipse cx="206" cy="64.5" rx="39" ry="42.5" fill="#FFC0C0"/>
<path d="M261 77.5C261 100.033 244.276 118 224 118C203.724 118 187 100.033 187 77.5C187 54.9672 203.724 37 224 37C244.276 37 261 54.9672 261 77.5Z" stroke="#FFA4A4" stroke-width="4"/>
</svg>
