<svg width="269" height="273" viewBox="0 0 269 273" fill="none" xmlns="http://www.w3.org/2000/svg">
<path d="M61.6156 158.679L90.5781 225.308L14.168 213.697L61.6156 158.679Z" fill="#FFC0C0"/>
<path d="M33.1861 209.076L78.7259 151.867L105.216 220.022L33.1861 209.076Z" stroke="#FFA4A4" stroke-width="3"/>
<rect x="152.4" y="176.042" width="79.1554" height="76.3235" rx="3" transform="rotate(-31.1515 152.4 176.042)" fill="#FFC0C0"/>
<rect x="149.023" y="194.667" width="81.2969" height="79.736" rx="1.5" transform="rotate(-31.1515 149.023 194.667)" stroke="#FFA4A4" stroke-width="3"/>
<ellipse cx="83.661" cy="61.1271" rx="39" ry="42.5" transform="rotate(-91.1761 83.661 61.1271)" fill="#FFC0C0"/>
<path d="M95.5295 5.87186C118.058 5.40938 136.364 21.7609 136.78 42.0328C137.197 62.3047 119.576 79.3938 97.0484 79.8563C74.5203 80.3187 56.2137 63.9672 55.7975 43.6953C55.3813 23.4234 73.0015 6.33434 95.5295 5.87186Z" stroke="#FFA4A4" stroke-width="4"/>
</svg>
