<svg width="180" height="143" viewBox="0 0 180 143" fill="none" xmlns="http://www.w3.org/2000/svg">
<rect x="130.606" y="77.0334" width="10.5331" height="52.4549" transform="rotate(0.098098 130.606 77.0334)" fill="#FFC0C0"/>
<rect width="11.713" height="48.9147" transform="matrix(-0.0103728 -0.999946 0.999912 -0.0132319 111.186 110.981)" fill="#FFC0C0"/>
<rect x="136.631" y="84.155" width="8.53312" height="51.9827" transform="rotate(0.098098 136.631 84.155)" stroke="#FFA4A4" stroke-width="2"/>
<rect x="0.98954" y="-1.01318" width="9.71303" height="48.2385" transform="matrix(-0.0103728 -0.999946 0.999912 -0.0132319 117.711 117.071)" stroke="#FFA4A4" stroke-width="2"/>
<rect x="71.2417" y="34.8385" width="8.45412" height="41.8148" transform="rotate(-50.3475 71.2417 34.8385)" fill="#FFC0C0"/>
<rect width="9.33713" height="39.26" transform="matrix(-0.777637 -0.628714 0.626632 -0.779316 82.1807 64.0887)" fill="#FFC0C0"/>
<rect x="64.6607" y="35.5559" width="6.45412" height="41.0327" transform="rotate(-50.3475 64.6607 35.5559)" stroke="#FFA4A4" stroke-width="2"/>
<rect x="-0.151005" y="-1.40803" width="7.33713" height="38.3225" transform="matrix(-0.777637 -0.628714 0.626632 -0.779316 74.5472 62.6602)" stroke="#FFA4A4" stroke-width="2"/>
<rect width="14.2314" height="55.3142" transform="matrix(0.15512 -0.987896 0.98863 0.150367 0.157959 131.434)" fill="#FFC0C0"/>
<rect x="1.14375" y="-0.837529" width="12.2314" height="54.8112" transform="matrix(0.15512 -0.987896 0.98863 0.150367 10.1503 125.546)" stroke="#FFA4A4" stroke-width="2"/>
<rect width="11.229" height="12.0643" transform="matrix(0.13535 -0.990798 0.991388 0.130956 158.293 11.3146)" fill="#FFC0C0"/>
<rect width="11.229" height="12.0643" transform="matrix(0.13535 -0.990798 0.991388 0.130956 155.98 28.5749)" fill="#FFC0C0"/>
<rect x="1.12348" y="-0.857078" width="11.0887" height="12.4232" transform="matrix(0.132516 -0.991181 0.990968 0.134102 162.342 33.8465)" stroke="#FFA4A4" stroke-width="2"/>
<rect x="1.12348" y="-0.857078" width="11.0887" height="12.0661" transform="matrix(0.132516 -0.991181 0.990968 0.134102 164.645 16.9077)" stroke="#FFA4A4" stroke-width="2"/>
</svg>
