<svg width="172" height="142" fill="none" xmlns="http://www.w3.org/2000/svg"><path fill="#FFBF64" d="m55.394 86.215-10.533-.036.18-52.455 10.532.036z"/><path fill="#FFBF64" d="m74.871 52.3.102 11.713-48.912.564-.101-11.712z"/><path stroke="#ECAC50" stroke-width="2" d="m49.38 79.083-8.533-.03.178-51.982 8.533.03z"/><path transform="rotate(89.503 10.912 59.584) skewX(.164)" stroke="#ECAC50" stroke-width="2" d="M-.991 1.011h9.713V49.25H-.991z"/><path fill="#FFBF64" d="m140.314 101.513-5.406 6.5-32.149-26.738 5.406-6.5z"/><path fill="#FFBF64" d="m129.424 72.245 7.25 5.882-24.653 30.554-7.25-5.883z"/><path stroke="#ECAC50" stroke-width="2" d="m146.896 100.807-4.127 4.962-31.548-26.238 4.127-4.962z"/><path transform="rotate(39.053 -31.237 231.05) skewX(.153)" stroke="#ECAC50" stroke-width="2" d="M.149 1.408h7.337V39.73H.149z"/><path fill="#FFBF64" d="m171.749 11.72-2.231 14.054-54.671-8.41 2.231-14.056z"/><path transform="matrix(-.1568 .98763 -.98837 -.15205 163.041 20.105)" stroke="#ECAC50" stroke-width="2" d="M-1.145.836h12.231v54.811H-1.145z"/><path fill="#FFBF64" d="m22.346 130.303-1.539 11.123-11.957-1.6 1.539-11.123zM24.688 113.047 23.15 124.17l-11.958-1.6 1.539-11.123z"/><path transform="rotate(97.713 -38.286 63.732) skewX(-.092)" stroke="#ECAC50" stroke-width="2" d="M-1.125.855H9.964v12.423H-1.125z"/><path transform="rotate(97.713 -46.85 71.18) skewX(-.092)" stroke="#ECAC50" stroke-width="2" d="M-1.125.855H9.964v12.066H-1.125z"/></svg>