<svg width="138" height="133" fill="none" xmlns="http://www.w3.org/2000/svg"><mask id="a" style="mask-type:alpha" maskUnits="userSpaceOnUse" x="0" y="0" width="138" height="133"><ellipse cx="69" cy="66.5" rx="69" ry="66.5" fill="#D9D9D9"/></mask><g mask="url(#a)" fill="#B55" fill-opacity=".9"><path d="M-20.125 3.578h193.446v2.69H-20.125zM-20.125 14.903h193.446v2.69H-20.125zM-20.125 26.229h193.446v2.69H-20.125zM-20.125 37.554h193.446v2.69H-20.125zM-20.125 48.879h193.446v2.69H-20.125zM-20.125 60.205h193.446v2.69H-20.125zM-20.125 71.53h193.446v2.69H-20.125zM-20.125 94.181h193.446v2.69H-20.125zM-20.125 82.856h193.446v2.69H-20.125zM-20.125 105.506h193.446v2.69H-20.125zM-20.125 128.157h193.446v2.69H-20.125zM-20.125 116.831h193.446v2.69H-20.125z"/></g></svg>