<svg width="180" height="143" fill="none" xmlns="http://www.w3.org/2000/svg"><path fill="#FFC0C0" d="m130.606 77.033 10.533.018-.09 52.455-10.533-.018z"/><path fill="#FFC0C0" d="m111.186 110.981-.121-11.712 48.91-.648.122 11.713z"/><path stroke="#FFA4A4" stroke-width="2" d="m136.631 84.155 8.533.015-.089 51.983-8.533-.015z"/><path transform="rotate(-90.594 116.787 .287) skewX(.164)" stroke="#FFA4A4" stroke-width="2" d="M.99-1.013h9.713v48.239H.99z"/><path fill="#FFC0C0" d="m71.242 34.839 5.395-6.51 32.195 26.684-5.395 6.509z"/><path fill="#FFC0C0" d="m82.18 64.089-7.26-5.87L99.52 27.621l7.261 5.87z"/><path stroke="#FFA4A4" stroke-width="2" d="m64.661 35.556 4.118-4.97 31.593 26.185-4.119 4.97z"/><path transform="rotate(-141.045 48.354 18.147) skewX(.153)" stroke="#FFA4A4" stroke-width="2" d="M-.151-1.408h7.337v38.322H-.151z"/><path fill="#FFC0C0" d="m.158 131.434 2.207-14.059 54.686 8.318-2.208 14.058z"/><path transform="matrix(.15512 -.9879 .98863 .15037 10.15 125.546)" stroke="#FFA4A4" stroke-width="2" d="M1.144-.838h12.231v54.811H1.144z"/><path fill="#FFC0C0" d="m158.293 11.315 1.52-11.126 11.96 1.58-1.52 11.125zM155.98 28.575l1.52-11.126 11.96 1.58-1.52 11.126z"/><path transform="rotate(-82.385 100.507 -75.822) skewX(-.092)" stroke="#FFA4A4" stroke-width="2" d="M1.123-.857h11.089v12.423H1.123z"/><path transform="rotate(-82.385 91.982 -85.607) skewX(-.092)" stroke="#FFA4A4" stroke-width="2" d="M1.123-.857h11.089v12.066H1.123z"/></svg>