<svg width="172" height="142" viewBox="0 0 172 142" fill="none" xmlns="http://www.w3.org/2000/svg">
<rect x="55.394" y="86.2148" width="10.5331" height="52.4549" transform="rotate(-179.804 55.394 86.2148)" fill="#FFBF64"/>
<rect width="11.713" height="48.9147" transform="matrix(0.00866674 0.999962 -0.999934 0.0115259 74.8715 52.3008)" fill="#FFBF64"/>
<rect x="49.3807" y="79.083" width="8.53312" height="51.9827" transform="rotate(-179.804 49.3807 79.083)" stroke="#ECAC50" stroke-width="2"/>
<rect x="-0.991267" y="1.01149" width="9.71303" height="48.2385" transform="matrix(0.00866674 0.999962 -0.999934 0.0115259 70.3985 48.1563)" stroke="#ECAC50" stroke-width="2"/>
<rect x="140.314" y="101.513" width="8.45412" height="41.8148" transform="rotate(129.75 140.314 101.513)" fill="#FFBF64"/>
<rect width="9.33713" height="39.26" transform="matrix(0.776563 0.63004 -0.62796 0.778245 129.424 72.2446)" fill="#FFBF64"/>
<rect x="146.896" y="100.807" width="6.45412" height="41.0327" transform="rotate(129.75 146.896 100.807)" stroke="#ECAC50" stroke-width="2"/>
<rect x="0.148603" y="1.40829" width="7.33713" height="38.3225" transform="matrix(0.776563 0.63004 -0.62796 0.778245 138.591 71.3056)" stroke="#ECAC50" stroke-width="2"/>
<rect width="14.2314" height="55.3142" transform="matrix(-0.156805 0.98763 -0.988372 -0.152054 171.749 11.7192)" fill="#FFBF64"/>
<rect x="-1.14518" y="0.835576" width="12.2314" height="54.8112" transform="matrix(-0.156805 0.98763 -0.988372 -0.152054 163.041 20.1049)" stroke="#ECAC50" stroke-width="2"/>
<rect width="11.229" height="12.0643" transform="matrix(-0.13704 0.990566 -0.991163 -0.132647 22.3461 130.303)" fill="#FFBF64"/>
<rect width="11.229" height="12.0643" transform="matrix(-0.13704 0.990566 -0.991163 -0.132647 24.6884 113.047)" fill="#FFBF64"/>
<rect x="-1.12494" y="0.85516" width="11.0887" height="12.4232" transform="matrix(-0.134207 0.990953 -0.990737 -0.135793 19.7307 110.225)" stroke="#ECAC50" stroke-width="2"/>
<rect x="-1.12494" y="0.85516" width="11.0887" height="12.0661" transform="matrix(-0.134207 0.990953 -0.990737 -0.135793 17.3982 127.16)" stroke="#ECAC50" stroke-width="2"/>
</svg>
