<svg width="87" height="63" fill="none" xmlns="http://www.w3.org/2000/svg"><ellipse cx="55" cy="31.5" rx="32" ry="31.5" fill="#1D7FA9" fill-opacity=".21"/><path d="M48.004 26.34a13.959 13.959 0 0 0-.96-4.893 10.153 10.153 0 0 0-2.381-3.52 10.611 10.611 0 0 0-3.654-2.295 15.643 15.643 0 0 0-5.01-.928c-2.204-.095-2.903-.121-8.499-.121s-6.314 0-8.502.121a15.64 15.64 0 0 0-5.007.928 10.605 10.605 0 0 0-3.654 2.294 10.147 10.147 0 0 0-2.38 3.52 14.012 14.012 0 0 0-.96 4.826c-.099 2.126-.129 2.8-.129 8.193 0 5.392 0 6.081.128 8.193a14.1 14.1 0 0 0 .96 4.83 10.153 10.153 0 0 0 2.383 3.519c1.04 1 2.284 1.782 3.654 2.293a15.58 15.58 0 0 0 5.007.993c2.207.095 2.906.124 8.502.124 5.597 0 6.314 0 8.502-.124a15.606 15.606 0 0 0 5.01-.925 10.624 10.624 0 0 0 3.653-2.295 10.165 10.165 0 0 0 2.381-3.52 14.08 14.08 0 0 0 .96-4.83c.099-2.124.128-2.797.128-8.192-.004-5.393-.004-6.077-.132-8.19ZM27.486 44.663c-5.853 0-10.594-4.57-10.594-10.21 0-5.64 4.741-10.209 10.594-10.209 2.81 0 5.505 1.076 7.492 2.99 1.986 1.915 3.103 4.512 3.103 7.22 0 2.707-1.117 5.304-3.103 7.219-1.987 1.914-4.682 2.99-7.492 2.99Zm11.016-18.415a2.55 2.55 0 0 1-.945-.181c-.3-.12-.573-.295-.802-.516a2.374 2.374 0 0 1-.536-.773 2.302 2.302 0 0 1 0-1.822c.125-.288.307-.55.536-.772.23-.22.502-.396.801-.515a2.55 2.55 0 0 1 1.89 0c.3.12.572.294.801.515.23.221.411.484.535.772.125.289.189.598.189.91 0 1.317-1.105 2.381-2.469 2.381Z" fill="#1D7FA9" fill-opacity=".81"/><path d="M27.486 41.085c3.801 0 6.882-2.969 6.882-6.631 0-3.663-3.081-6.632-6.882-6.632-3.8 0-6.882 2.97-6.882 6.632 0 3.662 3.082 6.631 6.882 6.631Z" fill="#1D7FA9" fill-opacity=".81"/></svg>