<svg width="86" height="69" fill="none" xmlns="http://www.w3.org/2000/svg"><ellipse cx="54" cy="31.5" rx="32" ry="31.5" fill="#1D7FA9" fill-opacity=".21"/><path d="M53.99 22.991c.036.503.036 1.004.036 1.504 0 15.31-11.145 32.95-31.515 32.95-6.275 0-12.105-1.9-17.011-5.2.891.106 1.749.143 2.676.143 4.986.013 9.83-1.73 13.752-4.948a10.79 10.79 0 0 1-6.41-2.28c-1.856-1.44-3.237-3.45-3.949-5.75.685.107 1.372.179 2.093.179.993 0 1.991-.144 2.918-.394-2.509-.53-4.765-1.951-6.384-4.023-1.62-2.072-2.502-4.666-2.499-7.342v-.144c1.477.86 3.19 1.398 5.005 1.47a11.395 11.395 0 0 1-3.629-4.173 11.985 11.985 0 0 1-1.31-5.47c0-2.15.547-4.123 1.507-5.842a31.813 31.813 0 0 0 10.19 8.595 30.443 30.443 0 0 0 12.652 3.523 13.735 13.735 0 0 1-.275-2.654c-.001-1.52.285-3.027.841-4.432a11.623 11.623 0 0 1 2.402-3.758 11.054 11.054 0 0 1 3.594-2.51 10.656 10.656 0 0 1 4.24-.88c3.19 0 6.069 1.397 8.093 3.657a21.312 21.312 0 0 0 7.029-2.798c-.827 2.676-2.558 4.946-4.87 6.383 2.2-.262 4.349-.867 6.377-1.794a24.394 24.394 0 0 1-5.552 5.988Z" fill="#1D7FA9" fill-opacity=".81"/></svg>