<svg width="93" height="69" fill="none" xmlns="http://www.w3.org/2000/svg"><ellipse cx="61" cy="34.5" rx="32" ry="31.5" fill="#1D7FA9" fill-opacity=".21"/><path d="M59.38 20.709a7.287 7.287 0 0 0-1.775-3.214 6.83 6.83 0 0 0-3.07-1.864C50.23 14.395 33 14.375 33 14.375s-17.226-.02-21.535 1.162a6.983 6.983 0 0 0-3.068 1.892 7.443 7.443 0 0 0-1.789 3.22c-1.135 4.502-1.146 13.84-1.146 13.84s-.011 9.384 1.116 13.84c.633 2.464 2.489 4.41 4.848 5.074 4.35 1.236 21.533 1.257 21.533 1.257s17.229.02 21.535-1.16a6.854 6.854 0 0 0 3.074-1.859 7.311 7.311 0 0 0 1.785-3.209c1.139-4.5 1.147-13.834 1.147-13.834s.055-9.387-1.12-13.89Zm-31.89 22.43.013-17.25 14.32 8.64-14.334 8.61Z" fill="#1D7FA9" fill-opacity=".81"/></svg>